<mxfile host="app.diagrams.net" modified="2023-10-17T04:12:25.624Z" agent="Mozilla/5.0 (Windows NT 10.0; Win64; x64) AppleWebKit/537.36 (KHTML, like Gecko) Chrome/118.0.0.0 Safari/537.36 Edg/118.0.2088.46" etag="bXuWGAdb2bID2jahU5dm" version="22.0.4" type="github">
  <diagram name="Page-1" id="uMU2oDvp_1zADVHk3cL-">
    <mxGraphModel dx="625" dy="394" grid="1" gridSize="10" guides="1" tooltips="1" connect="1" arrows="1" fold="1" page="1" pageScale="1" pageWidth="850" pageHeight="1100" math="0" shadow="0">
      <root>
        <mxCell id="0" />
        <mxCell id="1" parent="0" />
        <mxCell id="yy2f5Jms-0mZmbFjk460-5" value="" style="edgeStyle=orthogonalEdgeStyle;rounded=0;orthogonalLoop=1;jettySize=auto;html=1;" parent="1" source="yy2f5Jms-0mZmbFjk460-1" target="yy2f5Jms-0mZmbFjk460-4" edge="1">
          <mxGeometry relative="1" as="geometry" />
        </mxCell>
        <mxCell id="yy2f5Jms-0mZmbFjk460-1" value="Luas&lt;br&gt;Lingkaran&lt;br&gt;phi&lt;br&gt;d" style="shape=parallelogram;html=1;strokeWidth=2;perimeter=parallelogramPerimeter;whiteSpace=wrap;rounded=1;arcSize=12;size=0.23;" parent="1" vertex="1">
          <mxGeometry x="360" y="160" width="120" height="80" as="geometry" />
        </mxCell>
        <mxCell id="yy2f5Jms-0mZmbFjk460-7" value="" style="edgeStyle=orthogonalEdgeStyle;rounded=0;orthogonalLoop=1;jettySize=auto;html=1;" parent="1" source="yy2f5Jms-0mZmbFjk460-4" target="yy2f5Jms-0mZmbFjk460-6" edge="1">
          <mxGeometry relative="1" as="geometry" />
        </mxCell>
        <mxCell id="yy2f5Jms-0mZmbFjk460-4" value="Luas Lingkaran&lt;br&gt;= phi*d" style="rounded=1;whiteSpace=wrap;html=1;absoluteArcSize=1;arcSize=14;strokeWidth=2;" parent="1" vertex="1">
          <mxGeometry x="370" y="290" width="100" height="100" as="geometry" />
        </mxCell>
        <mxCell id="yy2f5Jms-0mZmbFjk460-6" value="Luas Lingkaran" style="shape=parallelogram;perimeter=parallelogramPerimeter;whiteSpace=wrap;html=1;fixedSize=1;rounded=1;arcSize=14;strokeWidth=2;" parent="1" vertex="1">
          <mxGeometry x="360" y="470" width="120" height="60" as="geometry" />
        </mxCell>
        <mxCell id="yy2f5Jms-0mZmbFjk460-8" value="END" style="strokeWidth=2;html=1;shape=mxgraph.flowchart.terminator;whiteSpace=wrap;" parent="1" vertex="1">
          <mxGeometry x="370" y="570" width="100" height="60" as="geometry" />
        </mxCell>
        <mxCell id="yy2f5Jms-0mZmbFjk460-9" style="edgeStyle=orthogonalEdgeStyle;rounded=0;orthogonalLoop=1;jettySize=auto;html=1;exitX=0.5;exitY=1;exitDx=0;exitDy=0;entryX=0.5;entryY=0;entryDx=0;entryDy=0;entryPerimeter=0;" parent="1" source="yy2f5Jms-0mZmbFjk460-6" target="yy2f5Jms-0mZmbFjk460-8" edge="1">
          <mxGeometry relative="1" as="geometry" />
        </mxCell>
        <mxCell id="yy2f5Jms-0mZmbFjk460-11" value="" style="edgeStyle=orthogonalEdgeStyle;rounded=0;orthogonalLoop=1;jettySize=auto;html=1;" parent="1" source="yy2f5Jms-0mZmbFjk460-10" target="yy2f5Jms-0mZmbFjk460-1" edge="1">
          <mxGeometry relative="1" as="geometry" />
        </mxCell>
        <mxCell id="yy2f5Jms-0mZmbFjk460-10" value="START" style="strokeWidth=2;html=1;shape=mxgraph.flowchart.terminator;whiteSpace=wrap;" parent="1" vertex="1">
          <mxGeometry x="370" y="50" width="100" height="60" as="geometry" />
        </mxCell>
      </root>
    </mxGraphModel>
  </diagram>
</mxfile>
